%TF.GenerationSoftware,KiCad,Pcbnew,8.0.7*%
%TF.CreationDate,2025-01-07T22:37:39-03:00*%
%TF.ProjectId,organator,6f726761-6e61-4746-9f72-2e6b69636164,rev?*%
%TF.SameCoordinates,Original*%
%TF.FileFunction,Legend,Top*%
%TF.FilePolarity,Positive*%
%FSLAX46Y46*%
G04 Gerber Fmt 4.6, Leading zero omitted, Abs format (unit mm)*
G04 Created by KiCad (PCBNEW 8.0.7) date 2025-01-07 22:37:39*
%MOMM*%
%LPD*%
G01*
G04 APERTURE LIST*
%ADD10C,0.100000*%
%ADD11C,0.150000*%
%ADD12C,0.125000*%
%ADD13C,0.120000*%
G04 APERTURE END LIST*
D10*
X110508579Y-116475000D02*
X111808579Y-116475000D01*
X111808579Y-120250000D01*
X110508579Y-120250000D01*
X110508579Y-116475000D01*
G36*
X110508579Y-116475000D02*
G01*
X111808579Y-116475000D01*
X111808579Y-120250000D01*
X110508579Y-120250000D01*
X110508579Y-116475000D01*
G37*
X116275000Y-110550000D02*
G75*
G02*
X116475000Y-110750000I0J-200000D01*
G01*
X128475000Y-122712500D02*
G75*
G02*
X128275000Y-122912500I-200000J0D01*
G01*
X110450000Y-122750000D02*
X110450000Y-110750000D01*
X110508579Y-120175000D02*
X116400000Y-120175000D01*
X116400000Y-122891421D01*
X110508579Y-122891421D01*
X110508579Y-120175000D01*
G36*
X110508579Y-120175000D02*
G01*
X116400000Y-120175000D01*
X116400000Y-122891421D01*
X110508579Y-122891421D01*
X110508579Y-120175000D01*
G37*
X110625000Y-122925000D02*
G75*
G02*
X110448200Y-122748231I0J176800D01*
G01*
X128294304Y-110329897D02*
G75*
G02*
X128697797Y-110788779I-17704J-422403D01*
G01*
X116736184Y-122730227D02*
G75*
G02*
X116332743Y-123189088I-421184J-36473D01*
G01*
X110508579Y-110608579D02*
X116375000Y-110608579D01*
X116375000Y-116475000D01*
X110508579Y-116475000D01*
X110508579Y-110608579D01*
G36*
X110508579Y-110608579D02*
G01*
X116375000Y-110608579D01*
X116375000Y-116475000D01*
X110508579Y-116475000D01*
X110508579Y-110608579D01*
G37*
X134075000Y-123200000D02*
X104925000Y-123200000D01*
X116475000Y-110750000D02*
X116475000Y-122725000D01*
X110236184Y-122734370D02*
G75*
G02*
X109832746Y-123193293I-421184J-36530D01*
G01*
X104950000Y-123200000D02*
G75*
G02*
X104546506Y-122741118I17700J422400D01*
G01*
X128475000Y-110737500D02*
X128475000Y-122712500D01*
X115125000Y-116462500D02*
X116425000Y-116462500D01*
X116425000Y-120237500D01*
X115125000Y-120237500D01*
X115125000Y-116462500D01*
G36*
X115125000Y-116462500D02*
G01*
X116425000Y-116462500D01*
X116425000Y-120237500D01*
X115125000Y-120237500D01*
X115125000Y-116462500D01*
G37*
X110650000Y-110550000D02*
X116275000Y-110550000D01*
X108925000Y-110325000D02*
X133900000Y-110325000D01*
X122605696Y-123190960D02*
G75*
G02*
X122202249Y-122732082I17704J422360D01*
G01*
X133901804Y-110329897D02*
G75*
G02*
X134305297Y-110788779I-17704J-422403D01*
G01*
D11*
X116807500Y-110425000D02*
G75*
G02*
X116657500Y-110425000I-75000J0D01*
G01*
X116657500Y-110425000D02*
G75*
G02*
X116807500Y-110425000I75000J0D01*
G01*
D10*
X122450000Y-110737500D02*
G75*
G02*
X122650000Y-110537500I200000J0D01*
G01*
X128275000Y-122912500D02*
X122650000Y-122912500D01*
X116275000Y-122925000D02*
X110650000Y-122925000D01*
X135140000Y-105350000D02*
G75*
G02*
X120140000Y-105350000I-7500000J0D01*
G01*
X120140000Y-105350000D02*
G75*
G02*
X135140000Y-105350000I7500000J0D01*
G01*
X122450000Y-122737500D02*
X122450000Y-110737500D01*
D11*
X110307500Y-123095857D02*
G75*
G02*
X110157500Y-123095857I-75000J0D01*
G01*
X110157500Y-123095857D02*
G75*
G02*
X110307500Y-123095857I75000J0D01*
G01*
D10*
X116728816Y-110786487D02*
G75*
G02*
X117132256Y-110327611I421184J36487D01*
G01*
X122508579Y-116462500D02*
X123808579Y-116462500D01*
X123808579Y-120237500D01*
X122508579Y-120237500D01*
X122508579Y-116462500D01*
G36*
X122508579Y-116462500D02*
G01*
X123808579Y-116462500D01*
X123808579Y-120237500D01*
X122508579Y-120237500D01*
X122508579Y-116462500D01*
G37*
X129113196Y-123190960D02*
G75*
G02*
X128709749Y-122732082I17704J422360D01*
G01*
X127125000Y-116450000D02*
X128425000Y-116450000D01*
X128425000Y-120225000D01*
X127125000Y-120225000D01*
X127125000Y-116450000D01*
G36*
X127125000Y-116450000D02*
G01*
X128425000Y-116450000D01*
X128425000Y-120225000D01*
X127125000Y-120225000D01*
X127125000Y-116450000D01*
G37*
D11*
X116807500Y-123091714D02*
G75*
G02*
X116657500Y-123091714I-75000J0D01*
G01*
X116657500Y-123091714D02*
G75*
G02*
X116807500Y-123091714I75000J0D01*
G01*
D10*
X134428684Y-122734369D02*
G75*
G02*
X134025246Y-123193293I-421184J-36531D01*
G01*
X110221316Y-110786487D02*
G75*
G02*
X110624756Y-110327611I421184J36487D01*
G01*
X109819304Y-110329897D02*
G75*
G02*
X110222797Y-110788779I-17704J-422403D01*
G01*
X117138196Y-123186817D02*
G75*
G02*
X116734688Y-122727934I17704J422417D01*
G01*
D11*
X128782500Y-123095857D02*
G75*
G02*
X128632500Y-123095857I-75000J0D01*
G01*
X128632500Y-123095857D02*
G75*
G02*
X128782500Y-123095857I75000J0D01*
G01*
D10*
X121794304Y-110334040D02*
G75*
G02*
X122197751Y-110792918I-17704J-422360D01*
G01*
X122196316Y-110790630D02*
G75*
G02*
X122599754Y-110331707I421184J36530D01*
G01*
X133640000Y-105350000D02*
G75*
G02*
X121640000Y-105350000I-6000000J0D01*
G01*
X121640000Y-105350000D02*
G75*
G02*
X133640000Y-105350000I6000000J0D01*
G01*
X110638196Y-123190960D02*
G75*
G02*
X110234749Y-122732082I17704J422360D01*
G01*
X128696316Y-110786487D02*
G75*
G02*
X129099756Y-110327611I421184J36487D01*
G01*
D11*
X128775000Y-110425000D02*
G75*
G02*
X128625000Y-110425000I-75000J0D01*
G01*
X128625000Y-110425000D02*
G75*
G02*
X128775000Y-110425000I75000J0D01*
G01*
D10*
X128711184Y-122734370D02*
G75*
G02*
X128307746Y-123193293I-421184J-36530D01*
G01*
X122508579Y-120162500D02*
X128400000Y-120162500D01*
X128400000Y-122878921D01*
X122508579Y-122878921D01*
X122508579Y-120162500D01*
G36*
X122508579Y-120162500D02*
G01*
X128400000Y-120162500D01*
X128400000Y-122878921D01*
X122508579Y-122878921D01*
X122508579Y-120162500D01*
G37*
D11*
X122275000Y-123095857D02*
G75*
G02*
X122125000Y-123095857I-75000J0D01*
G01*
X122125000Y-123095857D02*
G75*
G02*
X122275000Y-123095857I75000J0D01*
G01*
D10*
X122508579Y-110596079D02*
X128375000Y-110596079D01*
X128375000Y-116462500D01*
X122508579Y-116462500D01*
X122508579Y-110596079D01*
G36*
X122508579Y-110596079D02*
G01*
X128375000Y-110596079D01*
X128375000Y-116462500D01*
X122508579Y-116462500D01*
X122508579Y-110596079D01*
G37*
X116326804Y-110329897D02*
G75*
G02*
X116730297Y-110788779I-17704J-422403D01*
G01*
X122625000Y-122912500D02*
G75*
G02*
X122448200Y-122735731I0J176800D01*
G01*
X110450000Y-110750000D02*
G75*
G02*
X110650000Y-110550000I200000J0D01*
G01*
X122650000Y-110537500D02*
X128275000Y-110537500D01*
X128275000Y-110537500D02*
G75*
G02*
X128475000Y-110737500I0J-200000D01*
G01*
X116475000Y-122725000D02*
G75*
G02*
X116275000Y-122925000I-200000J0D01*
G01*
X122203684Y-122734370D02*
G75*
G02*
X121800246Y-123193293I-421184J-36530D01*
G01*
D11*
X110300000Y-110425000D02*
G75*
G02*
X110150000Y-110425000I-75000J0D01*
G01*
X110150000Y-110425000D02*
G75*
G02*
X110300000Y-110425000I75000J0D01*
G01*
X122275000Y-110429143D02*
G75*
G02*
X122125000Y-110429143I-75000J0D01*
G01*
X122125000Y-110429143D02*
G75*
G02*
X122275000Y-110429143I75000J0D01*
G01*
D12*
X115561997Y-110082309D02*
X115395331Y-109844214D01*
X115276283Y-110082309D02*
X115276283Y-109582309D01*
X115276283Y-109582309D02*
X115466759Y-109582309D01*
X115466759Y-109582309D02*
X115514378Y-109606119D01*
X115514378Y-109606119D02*
X115538188Y-109629928D01*
X115538188Y-109629928D02*
X115561997Y-109677547D01*
X115561997Y-109677547D02*
X115561997Y-109748976D01*
X115561997Y-109748976D02*
X115538188Y-109796595D01*
X115538188Y-109796595D02*
X115514378Y-109820404D01*
X115514378Y-109820404D02*
X115466759Y-109844214D01*
X115466759Y-109844214D02*
X115276283Y-109844214D01*
X115990569Y-109582309D02*
X115895331Y-109582309D01*
X115895331Y-109582309D02*
X115847712Y-109606119D01*
X115847712Y-109606119D02*
X115823902Y-109629928D01*
X115823902Y-109629928D02*
X115776283Y-109701357D01*
X115776283Y-109701357D02*
X115752474Y-109796595D01*
X115752474Y-109796595D02*
X115752474Y-109987071D01*
X115752474Y-109987071D02*
X115776283Y-110034690D01*
X115776283Y-110034690D02*
X115800093Y-110058500D01*
X115800093Y-110058500D02*
X115847712Y-110082309D01*
X115847712Y-110082309D02*
X115942950Y-110082309D01*
X115942950Y-110082309D02*
X115990569Y-110058500D01*
X115990569Y-110058500D02*
X116014378Y-110034690D01*
X116014378Y-110034690D02*
X116038188Y-109987071D01*
X116038188Y-109987071D02*
X116038188Y-109868023D01*
X116038188Y-109868023D02*
X116014378Y-109820404D01*
X116014378Y-109820404D02*
X115990569Y-109796595D01*
X115990569Y-109796595D02*
X115942950Y-109772785D01*
X115942950Y-109772785D02*
X115847712Y-109772785D01*
X115847712Y-109772785D02*
X115800093Y-109796595D01*
X115800093Y-109796595D02*
X115776283Y-109820404D01*
X115776283Y-109820404D02*
X115752474Y-109868023D01*
X113311997Y-110082309D02*
X113145331Y-109844214D01*
X113026283Y-110082309D02*
X113026283Y-109582309D01*
X113026283Y-109582309D02*
X113216759Y-109582309D01*
X113216759Y-109582309D02*
X113264378Y-109606119D01*
X113264378Y-109606119D02*
X113288188Y-109629928D01*
X113288188Y-109629928D02*
X113311997Y-109677547D01*
X113311997Y-109677547D02*
X113311997Y-109748976D01*
X113311997Y-109748976D02*
X113288188Y-109796595D01*
X113288188Y-109796595D02*
X113264378Y-109820404D01*
X113264378Y-109820404D02*
X113216759Y-109844214D01*
X113216759Y-109844214D02*
X113026283Y-109844214D01*
X113740569Y-109748976D02*
X113740569Y-110082309D01*
X113621521Y-109558500D02*
X113502474Y-109915642D01*
X113502474Y-109915642D02*
X113811997Y-109915642D01*
D10*
X127577693Y-107122419D02*
X127006265Y-107122419D01*
X127291979Y-107122419D02*
X127291979Y-106122419D01*
X127291979Y-106122419D02*
X127196741Y-106265276D01*
X127196741Y-106265276D02*
X127101503Y-106360514D01*
X127101503Y-106360514D02*
X127006265Y-106408133D01*
X127911027Y-106122419D02*
X128149122Y-107122419D01*
X128149122Y-107122419D02*
X128339598Y-106408133D01*
X128339598Y-106408133D02*
X128530074Y-107122419D01*
X128530074Y-107122419D02*
X128768170Y-106122419D01*
D12*
X106686997Y-103982309D02*
X106520331Y-103744214D01*
X106401283Y-103982309D02*
X106401283Y-103482309D01*
X106401283Y-103482309D02*
X106591759Y-103482309D01*
X106591759Y-103482309D02*
X106639378Y-103506119D01*
X106639378Y-103506119D02*
X106663188Y-103529928D01*
X106663188Y-103529928D02*
X106686997Y-103577547D01*
X106686997Y-103577547D02*
X106686997Y-103648976D01*
X106686997Y-103648976D02*
X106663188Y-103696595D01*
X106663188Y-103696595D02*
X106639378Y-103720404D01*
X106639378Y-103720404D02*
X106591759Y-103744214D01*
X106591759Y-103744214D02*
X106401283Y-103744214D01*
X107163188Y-103982309D02*
X106877474Y-103982309D01*
X107020331Y-103982309D02*
X107020331Y-103482309D01*
X107020331Y-103482309D02*
X106972712Y-103553738D01*
X106972712Y-103553738D02*
X106925093Y-103601357D01*
X106925093Y-103601357D02*
X106877474Y-103625166D01*
X109151283Y-104232309D02*
X109151283Y-103732309D01*
X109151283Y-103732309D02*
X109270331Y-103732309D01*
X109270331Y-103732309D02*
X109341759Y-103756119D01*
X109341759Y-103756119D02*
X109389378Y-103803738D01*
X109389378Y-103803738D02*
X109413188Y-103851357D01*
X109413188Y-103851357D02*
X109436997Y-103946595D01*
X109436997Y-103946595D02*
X109436997Y-104018023D01*
X109436997Y-104018023D02*
X109413188Y-104113261D01*
X109413188Y-104113261D02*
X109389378Y-104160880D01*
X109389378Y-104160880D02*
X109341759Y-104208500D01*
X109341759Y-104208500D02*
X109270331Y-104232309D01*
X109270331Y-104232309D02*
X109151283Y-104232309D01*
X109627474Y-103779928D02*
X109651283Y-103756119D01*
X109651283Y-103756119D02*
X109698902Y-103732309D01*
X109698902Y-103732309D02*
X109817950Y-103732309D01*
X109817950Y-103732309D02*
X109865569Y-103756119D01*
X109865569Y-103756119D02*
X109889378Y-103779928D01*
X109889378Y-103779928D02*
X109913188Y-103827547D01*
X109913188Y-103827547D02*
X109913188Y-103875166D01*
X109913188Y-103875166D02*
X109889378Y-103946595D01*
X109889378Y-103946595D02*
X109603664Y-104232309D01*
X109603664Y-104232309D02*
X109913188Y-104232309D01*
X111986997Y-100432309D02*
X111820331Y-100194214D01*
X111701283Y-100432309D02*
X111701283Y-99932309D01*
X111701283Y-99932309D02*
X111891759Y-99932309D01*
X111891759Y-99932309D02*
X111939378Y-99956119D01*
X111939378Y-99956119D02*
X111963188Y-99979928D01*
X111963188Y-99979928D02*
X111986997Y-100027547D01*
X111986997Y-100027547D02*
X111986997Y-100098976D01*
X111986997Y-100098976D02*
X111963188Y-100146595D01*
X111963188Y-100146595D02*
X111939378Y-100170404D01*
X111939378Y-100170404D02*
X111891759Y-100194214D01*
X111891759Y-100194214D02*
X111701283Y-100194214D01*
X112177474Y-99979928D02*
X112201283Y-99956119D01*
X112201283Y-99956119D02*
X112248902Y-99932309D01*
X112248902Y-99932309D02*
X112367950Y-99932309D01*
X112367950Y-99932309D02*
X112415569Y-99956119D01*
X112415569Y-99956119D02*
X112439378Y-99979928D01*
X112439378Y-99979928D02*
X112463188Y-100027547D01*
X112463188Y-100027547D02*
X112463188Y-100075166D01*
X112463188Y-100075166D02*
X112439378Y-100146595D01*
X112439378Y-100146595D02*
X112153664Y-100432309D01*
X112153664Y-100432309D02*
X112463188Y-100432309D01*
X111936997Y-102132309D02*
X111770331Y-101894214D01*
X111651283Y-102132309D02*
X111651283Y-101632309D01*
X111651283Y-101632309D02*
X111841759Y-101632309D01*
X111841759Y-101632309D02*
X111889378Y-101656119D01*
X111889378Y-101656119D02*
X111913188Y-101679928D01*
X111913188Y-101679928D02*
X111936997Y-101727547D01*
X111936997Y-101727547D02*
X111936997Y-101798976D01*
X111936997Y-101798976D02*
X111913188Y-101846595D01*
X111913188Y-101846595D02*
X111889378Y-101870404D01*
X111889378Y-101870404D02*
X111841759Y-101894214D01*
X111841759Y-101894214D02*
X111651283Y-101894214D01*
X112103664Y-101632309D02*
X112413188Y-101632309D01*
X112413188Y-101632309D02*
X112246521Y-101822785D01*
X112246521Y-101822785D02*
X112317950Y-101822785D01*
X112317950Y-101822785D02*
X112365569Y-101846595D01*
X112365569Y-101846595D02*
X112389378Y-101870404D01*
X112389378Y-101870404D02*
X112413188Y-101918023D01*
X112413188Y-101918023D02*
X112413188Y-102037071D01*
X112413188Y-102037071D02*
X112389378Y-102084690D01*
X112389378Y-102084690D02*
X112365569Y-102108500D01*
X112365569Y-102108500D02*
X112317950Y-102132309D01*
X112317950Y-102132309D02*
X112175093Y-102132309D01*
X112175093Y-102132309D02*
X112127474Y-102108500D01*
X112127474Y-102108500D02*
X112103664Y-102084690D01*
D10*
X126996741Y-100058609D02*
X126711027Y-100058609D01*
X126853884Y-100058609D02*
X126853884Y-99558609D01*
X126853884Y-99558609D02*
X126806265Y-99630038D01*
X126806265Y-99630038D02*
X126758646Y-99677657D01*
X126758646Y-99677657D02*
X126711027Y-99701466D01*
X127187217Y-99606228D02*
X127211026Y-99582419D01*
X127211026Y-99582419D02*
X127258645Y-99558609D01*
X127258645Y-99558609D02*
X127377693Y-99558609D01*
X127377693Y-99558609D02*
X127425312Y-99582419D01*
X127425312Y-99582419D02*
X127449121Y-99606228D01*
X127449121Y-99606228D02*
X127472931Y-99653847D01*
X127472931Y-99653847D02*
X127472931Y-99701466D01*
X127472931Y-99701466D02*
X127449121Y-99772895D01*
X127449121Y-99772895D02*
X127163407Y-100058609D01*
X127163407Y-100058609D02*
X127472931Y-100058609D01*
X127687216Y-100058609D02*
X127687216Y-99725276D01*
X127687216Y-99772895D02*
X127711026Y-99749085D01*
X127711026Y-99749085D02*
X127758645Y-99725276D01*
X127758645Y-99725276D02*
X127830073Y-99725276D01*
X127830073Y-99725276D02*
X127877692Y-99749085D01*
X127877692Y-99749085D02*
X127901502Y-99796704D01*
X127901502Y-99796704D02*
X127901502Y-100058609D01*
X127901502Y-99796704D02*
X127925311Y-99749085D01*
X127925311Y-99749085D02*
X127972930Y-99725276D01*
X127972930Y-99725276D02*
X128044359Y-99725276D01*
X128044359Y-99725276D02*
X128091978Y-99749085D01*
X128091978Y-99749085D02*
X128115788Y-99796704D01*
X128115788Y-99796704D02*
X128115788Y-100058609D01*
X128353883Y-100058609D02*
X128353883Y-99725276D01*
X128353883Y-99772895D02*
X128377693Y-99749085D01*
X128377693Y-99749085D02*
X128425312Y-99725276D01*
X128425312Y-99725276D02*
X128496740Y-99725276D01*
X128496740Y-99725276D02*
X128544359Y-99749085D01*
X128544359Y-99749085D02*
X128568169Y-99796704D01*
X128568169Y-99796704D02*
X128568169Y-100058609D01*
X128568169Y-99796704D02*
X128591978Y-99749085D01*
X128591978Y-99749085D02*
X128639597Y-99725276D01*
X128639597Y-99725276D02*
X128711026Y-99725276D01*
X128711026Y-99725276D02*
X128758645Y-99749085D01*
X128758645Y-99749085D02*
X128782455Y-99796704D01*
X128782455Y-99796704D02*
X128782455Y-100058609D01*
D12*
X108736997Y-105432309D02*
X108570331Y-105194214D01*
X108451283Y-105432309D02*
X108451283Y-104932309D01*
X108451283Y-104932309D02*
X108641759Y-104932309D01*
X108641759Y-104932309D02*
X108689378Y-104956119D01*
X108689378Y-104956119D02*
X108713188Y-104979928D01*
X108713188Y-104979928D02*
X108736997Y-105027547D01*
X108736997Y-105027547D02*
X108736997Y-105098976D01*
X108736997Y-105098976D02*
X108713188Y-105146595D01*
X108713188Y-105146595D02*
X108689378Y-105170404D01*
X108689378Y-105170404D02*
X108641759Y-105194214D01*
X108641759Y-105194214D02*
X108451283Y-105194214D01*
X108975093Y-105432309D02*
X109070331Y-105432309D01*
X109070331Y-105432309D02*
X109117950Y-105408500D01*
X109117950Y-105408500D02*
X109141759Y-105384690D01*
X109141759Y-105384690D02*
X109189378Y-105313261D01*
X109189378Y-105313261D02*
X109213188Y-105218023D01*
X109213188Y-105218023D02*
X109213188Y-105027547D01*
X109213188Y-105027547D02*
X109189378Y-104979928D01*
X109189378Y-104979928D02*
X109165569Y-104956119D01*
X109165569Y-104956119D02*
X109117950Y-104932309D01*
X109117950Y-104932309D02*
X109022712Y-104932309D01*
X109022712Y-104932309D02*
X108975093Y-104956119D01*
X108975093Y-104956119D02*
X108951283Y-104979928D01*
X108951283Y-104979928D02*
X108927474Y-105027547D01*
X108927474Y-105027547D02*
X108927474Y-105146595D01*
X108927474Y-105146595D02*
X108951283Y-105194214D01*
X108951283Y-105194214D02*
X108975093Y-105218023D01*
X108975093Y-105218023D02*
X109022712Y-105241833D01*
X109022712Y-105241833D02*
X109117950Y-105241833D01*
X109117950Y-105241833D02*
X109165569Y-105218023D01*
X109165569Y-105218023D02*
X109189378Y-105194214D01*
X109189378Y-105194214D02*
X109213188Y-105146595D01*
X114461997Y-110082309D02*
X114295331Y-109844214D01*
X114176283Y-110082309D02*
X114176283Y-109582309D01*
X114176283Y-109582309D02*
X114366759Y-109582309D01*
X114366759Y-109582309D02*
X114414378Y-109606119D01*
X114414378Y-109606119D02*
X114438188Y-109629928D01*
X114438188Y-109629928D02*
X114461997Y-109677547D01*
X114461997Y-109677547D02*
X114461997Y-109748976D01*
X114461997Y-109748976D02*
X114438188Y-109796595D01*
X114438188Y-109796595D02*
X114414378Y-109820404D01*
X114414378Y-109820404D02*
X114366759Y-109844214D01*
X114366759Y-109844214D02*
X114176283Y-109844214D01*
X114914378Y-109582309D02*
X114676283Y-109582309D01*
X114676283Y-109582309D02*
X114652474Y-109820404D01*
X114652474Y-109820404D02*
X114676283Y-109796595D01*
X114676283Y-109796595D02*
X114723902Y-109772785D01*
X114723902Y-109772785D02*
X114842950Y-109772785D01*
X114842950Y-109772785D02*
X114890569Y-109796595D01*
X114890569Y-109796595D02*
X114914378Y-109820404D01*
X114914378Y-109820404D02*
X114938188Y-109868023D01*
X114938188Y-109868023D02*
X114938188Y-109987071D01*
X114938188Y-109987071D02*
X114914378Y-110034690D01*
X114914378Y-110034690D02*
X114890569Y-110058500D01*
X114890569Y-110058500D02*
X114842950Y-110082309D01*
X114842950Y-110082309D02*
X114723902Y-110082309D01*
X114723902Y-110082309D02*
X114676283Y-110058500D01*
X114676283Y-110058500D02*
X114652474Y-110034690D01*
X116611997Y-110082309D02*
X116445331Y-109844214D01*
X116326283Y-110082309D02*
X116326283Y-109582309D01*
X116326283Y-109582309D02*
X116516759Y-109582309D01*
X116516759Y-109582309D02*
X116564378Y-109606119D01*
X116564378Y-109606119D02*
X116588188Y-109629928D01*
X116588188Y-109629928D02*
X116611997Y-109677547D01*
X116611997Y-109677547D02*
X116611997Y-109748976D01*
X116611997Y-109748976D02*
X116588188Y-109796595D01*
X116588188Y-109796595D02*
X116564378Y-109820404D01*
X116564378Y-109820404D02*
X116516759Y-109844214D01*
X116516759Y-109844214D02*
X116326283Y-109844214D01*
X116778664Y-109582309D02*
X117111997Y-109582309D01*
X117111997Y-109582309D02*
X116897712Y-110082309D01*
X114601283Y-103148976D02*
X114601283Y-103648976D01*
X114601283Y-103172785D02*
X114648902Y-103148976D01*
X114648902Y-103148976D02*
X114744140Y-103148976D01*
X114744140Y-103148976D02*
X114791759Y-103172785D01*
X114791759Y-103172785D02*
X114815569Y-103196595D01*
X114815569Y-103196595D02*
X114839378Y-103244214D01*
X114839378Y-103244214D02*
X114839378Y-103387071D01*
X114839378Y-103387071D02*
X114815569Y-103434690D01*
X114815569Y-103434690D02*
X114791759Y-103458500D01*
X114791759Y-103458500D02*
X114744140Y-103482309D01*
X114744140Y-103482309D02*
X114648902Y-103482309D01*
X114648902Y-103482309D02*
X114601283Y-103458500D01*
X115267950Y-103148976D02*
X115267950Y-103482309D01*
X115053664Y-103148976D02*
X115053664Y-103410880D01*
X115053664Y-103410880D02*
X115077474Y-103458500D01*
X115077474Y-103458500D02*
X115125093Y-103482309D01*
X115125093Y-103482309D02*
X115196521Y-103482309D01*
X115196521Y-103482309D02*
X115244140Y-103458500D01*
X115244140Y-103458500D02*
X115267950Y-103434690D01*
X115434617Y-103148976D02*
X115625093Y-103148976D01*
X115506045Y-102982309D02*
X115506045Y-103410880D01*
X115506045Y-103410880D02*
X115529855Y-103458500D01*
X115529855Y-103458500D02*
X115577474Y-103482309D01*
X115577474Y-103482309D02*
X115625093Y-103482309D01*
X116172711Y-103482309D02*
X116172711Y-103148976D01*
X116172711Y-103196595D02*
X116196521Y-103172785D01*
X116196521Y-103172785D02*
X116244140Y-103148976D01*
X116244140Y-103148976D02*
X116315568Y-103148976D01*
X116315568Y-103148976D02*
X116363187Y-103172785D01*
X116363187Y-103172785D02*
X116386997Y-103220404D01*
X116386997Y-103220404D02*
X116386997Y-103482309D01*
X116386997Y-103220404D02*
X116410806Y-103172785D01*
X116410806Y-103172785D02*
X116458425Y-103148976D01*
X116458425Y-103148976D02*
X116529854Y-103148976D01*
X116529854Y-103148976D02*
X116577473Y-103172785D01*
X116577473Y-103172785D02*
X116601283Y-103220404D01*
X116601283Y-103220404D02*
X116601283Y-103482309D01*
X117029854Y-103458500D02*
X116982235Y-103482309D01*
X116982235Y-103482309D02*
X116886997Y-103482309D01*
X116886997Y-103482309D02*
X116839378Y-103458500D01*
X116839378Y-103458500D02*
X116815569Y-103410880D01*
X116815569Y-103410880D02*
X116815569Y-103220404D01*
X116815569Y-103220404D02*
X116839378Y-103172785D01*
X116839378Y-103172785D02*
X116886997Y-103148976D01*
X116886997Y-103148976D02*
X116982235Y-103148976D01*
X116982235Y-103148976D02*
X117029854Y-103172785D01*
X117029854Y-103172785D02*
X117053664Y-103220404D01*
X117053664Y-103220404D02*
X117053664Y-103268023D01*
X117053664Y-103268023D02*
X116815569Y-103315642D01*
X117648901Y-103482309D02*
X117648901Y-102982309D01*
X117648901Y-103172785D02*
X117696520Y-103148976D01*
X117696520Y-103148976D02*
X117791758Y-103148976D01*
X117791758Y-103148976D02*
X117839377Y-103172785D01*
X117839377Y-103172785D02*
X117863187Y-103196595D01*
X117863187Y-103196595D02*
X117886996Y-103244214D01*
X117886996Y-103244214D02*
X117886996Y-103387071D01*
X117886996Y-103387071D02*
X117863187Y-103434690D01*
X117863187Y-103434690D02*
X117839377Y-103458500D01*
X117839377Y-103458500D02*
X117791758Y-103482309D01*
X117791758Y-103482309D02*
X117696520Y-103482309D01*
X117696520Y-103482309D02*
X117648901Y-103458500D01*
X118315568Y-103482309D02*
X118315568Y-103220404D01*
X118315568Y-103220404D02*
X118291758Y-103172785D01*
X118291758Y-103172785D02*
X118244139Y-103148976D01*
X118244139Y-103148976D02*
X118148901Y-103148976D01*
X118148901Y-103148976D02*
X118101282Y-103172785D01*
X118315568Y-103458500D02*
X118267949Y-103482309D01*
X118267949Y-103482309D02*
X118148901Y-103482309D01*
X118148901Y-103482309D02*
X118101282Y-103458500D01*
X118101282Y-103458500D02*
X118077473Y-103410880D01*
X118077473Y-103410880D02*
X118077473Y-103363261D01*
X118077473Y-103363261D02*
X118101282Y-103315642D01*
X118101282Y-103315642D02*
X118148901Y-103291833D01*
X118148901Y-103291833D02*
X118267949Y-103291833D01*
X118267949Y-103291833D02*
X118315568Y-103268023D01*
X118767949Y-103458500D02*
X118720330Y-103482309D01*
X118720330Y-103482309D02*
X118625092Y-103482309D01*
X118625092Y-103482309D02*
X118577473Y-103458500D01*
X118577473Y-103458500D02*
X118553663Y-103434690D01*
X118553663Y-103434690D02*
X118529854Y-103387071D01*
X118529854Y-103387071D02*
X118529854Y-103244214D01*
X118529854Y-103244214D02*
X118553663Y-103196595D01*
X118553663Y-103196595D02*
X118577473Y-103172785D01*
X118577473Y-103172785D02*
X118625092Y-103148976D01*
X118625092Y-103148976D02*
X118720330Y-103148976D01*
X118720330Y-103148976D02*
X118767949Y-103172785D01*
X118982234Y-103482309D02*
X118982234Y-102982309D01*
X119029853Y-103291833D02*
X119172710Y-103482309D01*
X119172710Y-103148976D02*
X118982234Y-103339452D01*
D10*
X124896265Y-105674800D02*
X125039122Y-105722419D01*
X125039122Y-105722419D02*
X125277217Y-105722419D01*
X125277217Y-105722419D02*
X125372455Y-105674800D01*
X125372455Y-105674800D02*
X125420074Y-105627180D01*
X125420074Y-105627180D02*
X125467693Y-105531942D01*
X125467693Y-105531942D02*
X125467693Y-105436704D01*
X125467693Y-105436704D02*
X125420074Y-105341466D01*
X125420074Y-105341466D02*
X125372455Y-105293847D01*
X125372455Y-105293847D02*
X125277217Y-105246228D01*
X125277217Y-105246228D02*
X125086741Y-105198609D01*
X125086741Y-105198609D02*
X124991503Y-105150990D01*
X124991503Y-105150990D02*
X124943884Y-105103371D01*
X124943884Y-105103371D02*
X124896265Y-105008133D01*
X124896265Y-105008133D02*
X124896265Y-104912895D01*
X124896265Y-104912895D02*
X124943884Y-104817657D01*
X124943884Y-104817657D02*
X124991503Y-104770038D01*
X124991503Y-104770038D02*
X125086741Y-104722419D01*
X125086741Y-104722419D02*
X125324836Y-104722419D01*
X125324836Y-104722419D02*
X125467693Y-104770038D01*
X125896265Y-105722419D02*
X125896265Y-104722419D01*
X125896265Y-104722419D02*
X126277217Y-104722419D01*
X126277217Y-104722419D02*
X126372455Y-104770038D01*
X126372455Y-104770038D02*
X126420074Y-104817657D01*
X126420074Y-104817657D02*
X126467693Y-104912895D01*
X126467693Y-104912895D02*
X126467693Y-105055752D01*
X126467693Y-105055752D02*
X126420074Y-105150990D01*
X126420074Y-105150990D02*
X126372455Y-105198609D01*
X126372455Y-105198609D02*
X126277217Y-105246228D01*
X126277217Y-105246228D02*
X125896265Y-105246228D01*
X126896265Y-105198609D02*
X127229598Y-105198609D01*
X127372455Y-105722419D02*
X126896265Y-105722419D01*
X126896265Y-105722419D02*
X126896265Y-104722419D01*
X126896265Y-104722419D02*
X127372455Y-104722419D01*
X127753408Y-105436704D02*
X128229598Y-105436704D01*
X127658170Y-105722419D02*
X127991503Y-104722419D01*
X127991503Y-104722419D02*
X128324836Y-105722419D01*
X128658170Y-105722419D02*
X128658170Y-104722419D01*
X129229598Y-105722419D02*
X128801027Y-105150990D01*
X129229598Y-104722419D02*
X128658170Y-105293847D01*
X129658170Y-105198609D02*
X129991503Y-105198609D01*
X130134360Y-105722419D02*
X129658170Y-105722419D01*
X129658170Y-105722419D02*
X129658170Y-104722419D01*
X129658170Y-104722419D02*
X130134360Y-104722419D01*
X131134360Y-105722419D02*
X130801027Y-105246228D01*
X130562932Y-105722419D02*
X130562932Y-104722419D01*
X130562932Y-104722419D02*
X130943884Y-104722419D01*
X130943884Y-104722419D02*
X131039122Y-104770038D01*
X131039122Y-104770038D02*
X131086741Y-104817657D01*
X131086741Y-104817657D02*
X131134360Y-104912895D01*
X131134360Y-104912895D02*
X131134360Y-105055752D01*
X131134360Y-105055752D02*
X131086741Y-105150990D01*
X131086741Y-105150990D02*
X131039122Y-105198609D01*
X131039122Y-105198609D02*
X130943884Y-105246228D01*
X130943884Y-105246228D02*
X130562932Y-105246228D01*
D12*
X117711997Y-110082309D02*
X117545331Y-109844214D01*
X117426283Y-110082309D02*
X117426283Y-109582309D01*
X117426283Y-109582309D02*
X117616759Y-109582309D01*
X117616759Y-109582309D02*
X117664378Y-109606119D01*
X117664378Y-109606119D02*
X117688188Y-109629928D01*
X117688188Y-109629928D02*
X117711997Y-109677547D01*
X117711997Y-109677547D02*
X117711997Y-109748976D01*
X117711997Y-109748976D02*
X117688188Y-109796595D01*
X117688188Y-109796595D02*
X117664378Y-109820404D01*
X117664378Y-109820404D02*
X117616759Y-109844214D01*
X117616759Y-109844214D02*
X117426283Y-109844214D01*
X117997712Y-109796595D02*
X117950093Y-109772785D01*
X117950093Y-109772785D02*
X117926283Y-109748976D01*
X117926283Y-109748976D02*
X117902474Y-109701357D01*
X117902474Y-109701357D02*
X117902474Y-109677547D01*
X117902474Y-109677547D02*
X117926283Y-109629928D01*
X117926283Y-109629928D02*
X117950093Y-109606119D01*
X117950093Y-109606119D02*
X117997712Y-109582309D01*
X117997712Y-109582309D02*
X118092950Y-109582309D01*
X118092950Y-109582309D02*
X118140569Y-109606119D01*
X118140569Y-109606119D02*
X118164378Y-109629928D01*
X118164378Y-109629928D02*
X118188188Y-109677547D01*
X118188188Y-109677547D02*
X118188188Y-109701357D01*
X118188188Y-109701357D02*
X118164378Y-109748976D01*
X118164378Y-109748976D02*
X118140569Y-109772785D01*
X118140569Y-109772785D02*
X118092950Y-109796595D01*
X118092950Y-109796595D02*
X117997712Y-109796595D01*
X117997712Y-109796595D02*
X117950093Y-109820404D01*
X117950093Y-109820404D02*
X117926283Y-109844214D01*
X117926283Y-109844214D02*
X117902474Y-109891833D01*
X117902474Y-109891833D02*
X117902474Y-109987071D01*
X117902474Y-109987071D02*
X117926283Y-110034690D01*
X117926283Y-110034690D02*
X117950093Y-110058500D01*
X117950093Y-110058500D02*
X117997712Y-110082309D01*
X117997712Y-110082309D02*
X118092950Y-110082309D01*
X118092950Y-110082309D02*
X118140569Y-110058500D01*
X118140569Y-110058500D02*
X118164378Y-110034690D01*
X118164378Y-110034690D02*
X118188188Y-109987071D01*
X118188188Y-109987071D02*
X118188188Y-109891833D01*
X118188188Y-109891833D02*
X118164378Y-109844214D01*
X118164378Y-109844214D02*
X118140569Y-109820404D01*
X118140569Y-109820404D02*
X118092950Y-109796595D01*
D10*
X126896741Y-98683609D02*
X126611027Y-98683609D01*
X126753884Y-98683609D02*
X126753884Y-98183609D01*
X126753884Y-98183609D02*
X126706265Y-98255038D01*
X126706265Y-98255038D02*
X126658646Y-98302657D01*
X126658646Y-98302657D02*
X126611027Y-98326466D01*
X127349121Y-98183609D02*
X127111026Y-98183609D01*
X127111026Y-98183609D02*
X127087217Y-98421704D01*
X127087217Y-98421704D02*
X127111026Y-98397895D01*
X127111026Y-98397895D02*
X127158645Y-98374085D01*
X127158645Y-98374085D02*
X127277693Y-98374085D01*
X127277693Y-98374085D02*
X127325312Y-98397895D01*
X127325312Y-98397895D02*
X127349121Y-98421704D01*
X127349121Y-98421704D02*
X127372931Y-98469323D01*
X127372931Y-98469323D02*
X127372931Y-98588371D01*
X127372931Y-98588371D02*
X127349121Y-98635990D01*
X127349121Y-98635990D02*
X127325312Y-98659800D01*
X127325312Y-98659800D02*
X127277693Y-98683609D01*
X127277693Y-98683609D02*
X127158645Y-98683609D01*
X127158645Y-98683609D02*
X127111026Y-98659800D01*
X127111026Y-98659800D02*
X127087217Y-98635990D01*
X127587216Y-98683609D02*
X127587216Y-98350276D01*
X127587216Y-98397895D02*
X127611026Y-98374085D01*
X127611026Y-98374085D02*
X127658645Y-98350276D01*
X127658645Y-98350276D02*
X127730073Y-98350276D01*
X127730073Y-98350276D02*
X127777692Y-98374085D01*
X127777692Y-98374085D02*
X127801502Y-98421704D01*
X127801502Y-98421704D02*
X127801502Y-98683609D01*
X127801502Y-98421704D02*
X127825311Y-98374085D01*
X127825311Y-98374085D02*
X127872930Y-98350276D01*
X127872930Y-98350276D02*
X127944359Y-98350276D01*
X127944359Y-98350276D02*
X127991978Y-98374085D01*
X127991978Y-98374085D02*
X128015788Y-98421704D01*
X128015788Y-98421704D02*
X128015788Y-98683609D01*
X128253883Y-98683609D02*
X128253883Y-98350276D01*
X128253883Y-98397895D02*
X128277693Y-98374085D01*
X128277693Y-98374085D02*
X128325312Y-98350276D01*
X128325312Y-98350276D02*
X128396740Y-98350276D01*
X128396740Y-98350276D02*
X128444359Y-98374085D01*
X128444359Y-98374085D02*
X128468169Y-98421704D01*
X128468169Y-98421704D02*
X128468169Y-98683609D01*
X128468169Y-98421704D02*
X128491978Y-98374085D01*
X128491978Y-98374085D02*
X128539597Y-98350276D01*
X128539597Y-98350276D02*
X128611026Y-98350276D01*
X128611026Y-98350276D02*
X128658645Y-98374085D01*
X128658645Y-98374085D02*
X128682455Y-98421704D01*
X128682455Y-98421704D02*
X128682455Y-98683609D01*
D12*
X113784616Y-107579928D02*
X113736997Y-107556119D01*
X113736997Y-107556119D02*
X113689378Y-107508500D01*
X113689378Y-107508500D02*
X113617950Y-107437071D01*
X113617950Y-107437071D02*
X113570331Y-107413261D01*
X113570331Y-107413261D02*
X113522712Y-107413261D01*
X113546521Y-107532309D02*
X113498902Y-107508500D01*
X113498902Y-107508500D02*
X113451283Y-107460880D01*
X113451283Y-107460880D02*
X113427474Y-107365642D01*
X113427474Y-107365642D02*
X113427474Y-107198976D01*
X113427474Y-107198976D02*
X113451283Y-107103738D01*
X113451283Y-107103738D02*
X113498902Y-107056119D01*
X113498902Y-107056119D02*
X113546521Y-107032309D01*
X113546521Y-107032309D02*
X113641759Y-107032309D01*
X113641759Y-107032309D02*
X113689378Y-107056119D01*
X113689378Y-107056119D02*
X113736997Y-107103738D01*
X113736997Y-107103738D02*
X113760807Y-107198976D01*
X113760807Y-107198976D02*
X113760807Y-107365642D01*
X113760807Y-107365642D02*
X113736997Y-107460880D01*
X113736997Y-107460880D02*
X113689378Y-107508500D01*
X113689378Y-107508500D02*
X113641759Y-107532309D01*
X113641759Y-107532309D02*
X113546521Y-107532309D01*
X114236998Y-107532309D02*
X113951284Y-107532309D01*
X114094141Y-107532309D02*
X114094141Y-107032309D01*
X114094141Y-107032309D02*
X114046522Y-107103738D01*
X114046522Y-107103738D02*
X113998903Y-107151357D01*
X113998903Y-107151357D02*
X113951284Y-107175166D01*
X106551283Y-98782309D02*
X106551283Y-98282309D01*
X106551283Y-98282309D02*
X106670331Y-98282309D01*
X106670331Y-98282309D02*
X106741759Y-98306119D01*
X106741759Y-98306119D02*
X106789378Y-98353738D01*
X106789378Y-98353738D02*
X106813188Y-98401357D01*
X106813188Y-98401357D02*
X106836997Y-98496595D01*
X106836997Y-98496595D02*
X106836997Y-98568023D01*
X106836997Y-98568023D02*
X106813188Y-98663261D01*
X106813188Y-98663261D02*
X106789378Y-98710880D01*
X106789378Y-98710880D02*
X106741759Y-98758500D01*
X106741759Y-98758500D02*
X106670331Y-98782309D01*
X106670331Y-98782309D02*
X106551283Y-98782309D01*
X107313188Y-98782309D02*
X107027474Y-98782309D01*
X107170331Y-98782309D02*
X107170331Y-98282309D01*
X107170331Y-98282309D02*
X107122712Y-98353738D01*
X107122712Y-98353738D02*
X107075093Y-98401357D01*
X107075093Y-98401357D02*
X107027474Y-98425166D01*
D11*
X115901319Y-111856666D02*
X115425128Y-112189999D01*
X115901319Y-112428094D02*
X114901319Y-112428094D01*
X114901319Y-112428094D02*
X114901319Y-112047142D01*
X114901319Y-112047142D02*
X114948938Y-111951904D01*
X114948938Y-111951904D02*
X114996557Y-111904285D01*
X114996557Y-111904285D02*
X115091795Y-111856666D01*
X115091795Y-111856666D02*
X115234652Y-111856666D01*
X115234652Y-111856666D02*
X115329890Y-111904285D01*
X115329890Y-111904285D02*
X115377509Y-111951904D01*
X115377509Y-111951904D02*
X115425128Y-112047142D01*
X115425128Y-112047142D02*
X115425128Y-112428094D01*
X114901319Y-111523332D02*
X114901319Y-110856666D01*
X114901319Y-110856666D02*
X115901319Y-111285237D01*
X112116667Y-118857200D02*
X112259524Y-118904819D01*
X112259524Y-118904819D02*
X112497619Y-118904819D01*
X112497619Y-118904819D02*
X112592857Y-118857200D01*
X112592857Y-118857200D02*
X112640476Y-118809580D01*
X112640476Y-118809580D02*
X112688095Y-118714342D01*
X112688095Y-118714342D02*
X112688095Y-118619104D01*
X112688095Y-118619104D02*
X112640476Y-118523866D01*
X112640476Y-118523866D02*
X112592857Y-118476247D01*
X112592857Y-118476247D02*
X112497619Y-118428628D01*
X112497619Y-118428628D02*
X112307143Y-118381009D01*
X112307143Y-118381009D02*
X112211905Y-118333390D01*
X112211905Y-118333390D02*
X112164286Y-118285771D01*
X112164286Y-118285771D02*
X112116667Y-118190533D01*
X112116667Y-118190533D02*
X112116667Y-118095295D01*
X112116667Y-118095295D02*
X112164286Y-118000057D01*
X112164286Y-118000057D02*
X112211905Y-117952438D01*
X112211905Y-117952438D02*
X112307143Y-117904819D01*
X112307143Y-117904819D02*
X112545238Y-117904819D01*
X112545238Y-117904819D02*
X112688095Y-117952438D01*
X113021429Y-117904819D02*
X113259524Y-118904819D01*
X113259524Y-118904819D02*
X113450000Y-118190533D01*
X113450000Y-118190533D02*
X113640476Y-118904819D01*
X113640476Y-118904819D02*
X113878572Y-117904819D01*
X114211905Y-118000057D02*
X114259524Y-117952438D01*
X114259524Y-117952438D02*
X114354762Y-117904819D01*
X114354762Y-117904819D02*
X114592857Y-117904819D01*
X114592857Y-117904819D02*
X114688095Y-117952438D01*
X114688095Y-117952438D02*
X114735714Y-118000057D01*
X114735714Y-118000057D02*
X114783333Y-118095295D01*
X114783333Y-118095295D02*
X114783333Y-118190533D01*
X114783333Y-118190533D02*
X114735714Y-118333390D01*
X114735714Y-118333390D02*
X114164286Y-118904819D01*
X114164286Y-118904819D02*
X114783333Y-118904819D01*
X130116667Y-118857200D02*
X130259524Y-118904819D01*
X130259524Y-118904819D02*
X130497619Y-118904819D01*
X130497619Y-118904819D02*
X130592857Y-118857200D01*
X130592857Y-118857200D02*
X130640476Y-118809580D01*
X130640476Y-118809580D02*
X130688095Y-118714342D01*
X130688095Y-118714342D02*
X130688095Y-118619104D01*
X130688095Y-118619104D02*
X130640476Y-118523866D01*
X130640476Y-118523866D02*
X130592857Y-118476247D01*
X130592857Y-118476247D02*
X130497619Y-118428628D01*
X130497619Y-118428628D02*
X130307143Y-118381009D01*
X130307143Y-118381009D02*
X130211905Y-118333390D01*
X130211905Y-118333390D02*
X130164286Y-118285771D01*
X130164286Y-118285771D02*
X130116667Y-118190533D01*
X130116667Y-118190533D02*
X130116667Y-118095295D01*
X130116667Y-118095295D02*
X130164286Y-118000057D01*
X130164286Y-118000057D02*
X130211905Y-117952438D01*
X130211905Y-117952438D02*
X130307143Y-117904819D01*
X130307143Y-117904819D02*
X130545238Y-117904819D01*
X130545238Y-117904819D02*
X130688095Y-117952438D01*
X131021429Y-117904819D02*
X131259524Y-118904819D01*
X131259524Y-118904819D02*
X131450000Y-118190533D01*
X131450000Y-118190533D02*
X131640476Y-118904819D01*
X131640476Y-118904819D02*
X131878572Y-117904819D01*
X132735714Y-117904819D02*
X132259524Y-117904819D01*
X132259524Y-117904819D02*
X132211905Y-118381009D01*
X132211905Y-118381009D02*
X132259524Y-118333390D01*
X132259524Y-118333390D02*
X132354762Y-118285771D01*
X132354762Y-118285771D02*
X132592857Y-118285771D01*
X132592857Y-118285771D02*
X132688095Y-118333390D01*
X132688095Y-118333390D02*
X132735714Y-118381009D01*
X132735714Y-118381009D02*
X132783333Y-118476247D01*
X132783333Y-118476247D02*
X132783333Y-118714342D01*
X132783333Y-118714342D02*
X132735714Y-118809580D01*
X132735714Y-118809580D02*
X132688095Y-118857200D01*
X132688095Y-118857200D02*
X132592857Y-118904819D01*
X132592857Y-118904819D02*
X132354762Y-118904819D01*
X132354762Y-118904819D02*
X132259524Y-118857200D01*
X132259524Y-118857200D02*
X132211905Y-118809580D01*
X106116667Y-118857200D02*
X106259524Y-118904819D01*
X106259524Y-118904819D02*
X106497619Y-118904819D01*
X106497619Y-118904819D02*
X106592857Y-118857200D01*
X106592857Y-118857200D02*
X106640476Y-118809580D01*
X106640476Y-118809580D02*
X106688095Y-118714342D01*
X106688095Y-118714342D02*
X106688095Y-118619104D01*
X106688095Y-118619104D02*
X106640476Y-118523866D01*
X106640476Y-118523866D02*
X106592857Y-118476247D01*
X106592857Y-118476247D02*
X106497619Y-118428628D01*
X106497619Y-118428628D02*
X106307143Y-118381009D01*
X106307143Y-118381009D02*
X106211905Y-118333390D01*
X106211905Y-118333390D02*
X106164286Y-118285771D01*
X106164286Y-118285771D02*
X106116667Y-118190533D01*
X106116667Y-118190533D02*
X106116667Y-118095295D01*
X106116667Y-118095295D02*
X106164286Y-118000057D01*
X106164286Y-118000057D02*
X106211905Y-117952438D01*
X106211905Y-117952438D02*
X106307143Y-117904819D01*
X106307143Y-117904819D02*
X106545238Y-117904819D01*
X106545238Y-117904819D02*
X106688095Y-117952438D01*
X107021429Y-117904819D02*
X107259524Y-118904819D01*
X107259524Y-118904819D02*
X107450000Y-118190533D01*
X107450000Y-118190533D02*
X107640476Y-118904819D01*
X107640476Y-118904819D02*
X107878572Y-117904819D01*
X108783333Y-118904819D02*
X108211905Y-118904819D01*
X108497619Y-118904819D02*
X108497619Y-117904819D01*
X108497619Y-117904819D02*
X108402381Y-118047676D01*
X108402381Y-118047676D02*
X108307143Y-118142914D01*
X108307143Y-118142914D02*
X108211905Y-118190533D01*
X118116667Y-118857200D02*
X118259524Y-118904819D01*
X118259524Y-118904819D02*
X118497619Y-118904819D01*
X118497619Y-118904819D02*
X118592857Y-118857200D01*
X118592857Y-118857200D02*
X118640476Y-118809580D01*
X118640476Y-118809580D02*
X118688095Y-118714342D01*
X118688095Y-118714342D02*
X118688095Y-118619104D01*
X118688095Y-118619104D02*
X118640476Y-118523866D01*
X118640476Y-118523866D02*
X118592857Y-118476247D01*
X118592857Y-118476247D02*
X118497619Y-118428628D01*
X118497619Y-118428628D02*
X118307143Y-118381009D01*
X118307143Y-118381009D02*
X118211905Y-118333390D01*
X118211905Y-118333390D02*
X118164286Y-118285771D01*
X118164286Y-118285771D02*
X118116667Y-118190533D01*
X118116667Y-118190533D02*
X118116667Y-118095295D01*
X118116667Y-118095295D02*
X118164286Y-118000057D01*
X118164286Y-118000057D02*
X118211905Y-117952438D01*
X118211905Y-117952438D02*
X118307143Y-117904819D01*
X118307143Y-117904819D02*
X118545238Y-117904819D01*
X118545238Y-117904819D02*
X118688095Y-117952438D01*
X119021429Y-117904819D02*
X119259524Y-118904819D01*
X119259524Y-118904819D02*
X119450000Y-118190533D01*
X119450000Y-118190533D02*
X119640476Y-118904819D01*
X119640476Y-118904819D02*
X119878572Y-117904819D01*
X120164286Y-117904819D02*
X120783333Y-117904819D01*
X120783333Y-117904819D02*
X120450000Y-118285771D01*
X120450000Y-118285771D02*
X120592857Y-118285771D01*
X120592857Y-118285771D02*
X120688095Y-118333390D01*
X120688095Y-118333390D02*
X120735714Y-118381009D01*
X120735714Y-118381009D02*
X120783333Y-118476247D01*
X120783333Y-118476247D02*
X120783333Y-118714342D01*
X120783333Y-118714342D02*
X120735714Y-118809580D01*
X120735714Y-118809580D02*
X120688095Y-118857200D01*
X120688095Y-118857200D02*
X120592857Y-118904819D01*
X120592857Y-118904819D02*
X120307143Y-118904819D01*
X120307143Y-118904819D02*
X120211905Y-118857200D01*
X120211905Y-118857200D02*
X120164286Y-118809580D01*
X124116667Y-118857200D02*
X124259524Y-118904819D01*
X124259524Y-118904819D02*
X124497619Y-118904819D01*
X124497619Y-118904819D02*
X124592857Y-118857200D01*
X124592857Y-118857200D02*
X124640476Y-118809580D01*
X124640476Y-118809580D02*
X124688095Y-118714342D01*
X124688095Y-118714342D02*
X124688095Y-118619104D01*
X124688095Y-118619104D02*
X124640476Y-118523866D01*
X124640476Y-118523866D02*
X124592857Y-118476247D01*
X124592857Y-118476247D02*
X124497619Y-118428628D01*
X124497619Y-118428628D02*
X124307143Y-118381009D01*
X124307143Y-118381009D02*
X124211905Y-118333390D01*
X124211905Y-118333390D02*
X124164286Y-118285771D01*
X124164286Y-118285771D02*
X124116667Y-118190533D01*
X124116667Y-118190533D02*
X124116667Y-118095295D01*
X124116667Y-118095295D02*
X124164286Y-118000057D01*
X124164286Y-118000057D02*
X124211905Y-117952438D01*
X124211905Y-117952438D02*
X124307143Y-117904819D01*
X124307143Y-117904819D02*
X124545238Y-117904819D01*
X124545238Y-117904819D02*
X124688095Y-117952438D01*
X125021429Y-117904819D02*
X125259524Y-118904819D01*
X125259524Y-118904819D02*
X125450000Y-118190533D01*
X125450000Y-118190533D02*
X125640476Y-118904819D01*
X125640476Y-118904819D02*
X125878572Y-117904819D01*
X126688095Y-118238152D02*
X126688095Y-118904819D01*
X126450000Y-117857200D02*
X126211905Y-118571485D01*
X126211905Y-118571485D02*
X126830952Y-118571485D01*
D13*
%TO.C,R5*%
X114080000Y-110740000D02*
X114080000Y-112640000D01*
X114080000Y-112640000D02*
X115080000Y-112640000D01*
X115080000Y-110740000D02*
X114080000Y-110740000D01*
X115080000Y-112640000D02*
X115080000Y-110740000D01*
%TO.C,R1*%
X104290000Y-103200000D02*
X104290000Y-104200000D01*
X104290000Y-104200000D02*
X106190000Y-104200000D01*
X106190000Y-103200000D02*
X104290000Y-103200000D01*
X106190000Y-104200000D02*
X106190000Y-103200000D01*
%TO.C,R3*%
X111600000Y-102410000D02*
X111600000Y-104310000D01*
X111600000Y-104310000D02*
X112600000Y-104310000D01*
X112600000Y-102410000D02*
X111600000Y-102410000D01*
X112600000Y-104310000D02*
X112600000Y-102410000D01*
%TO.C,SW2*%
X111080000Y-116080000D02*
X111480000Y-116080000D01*
X111080000Y-120820000D02*
X111080000Y-116080000D01*
X111080000Y-120820000D02*
X111480000Y-120820000D01*
X114480000Y-116080000D02*
X112420000Y-116080000D01*
X114480000Y-120820000D02*
X112420000Y-120820000D01*
X115820000Y-116080000D02*
X115420000Y-116080000D01*
X115820000Y-120820000D02*
X115420000Y-120820000D01*
X115820000Y-120820000D02*
X115820000Y-116080000D01*
%TO.C,SW5*%
X129080000Y-116080000D02*
X129480000Y-116080000D01*
X129080000Y-120820000D02*
X129080000Y-116080000D01*
X129080000Y-120820000D02*
X129480000Y-120820000D01*
X132480000Y-116080000D02*
X130420000Y-116080000D01*
X132480000Y-120820000D02*
X130420000Y-120820000D01*
X133820000Y-116080000D02*
X133420000Y-116080000D01*
X133820000Y-120820000D02*
X133420000Y-120820000D01*
X133820000Y-120820000D02*
X133820000Y-116080000D01*
%TO.C,D2*%
X109200000Y-98840000D02*
X109200000Y-102850000D01*
X111200000Y-98840000D02*
X109200000Y-98840000D01*
X111200000Y-98840000D02*
X111200000Y-102850000D01*
%TO.C,R4*%
X112980000Y-110740000D02*
X112980000Y-112640000D01*
X112980000Y-112640000D02*
X113980000Y-112640000D01*
X113980000Y-110740000D02*
X112980000Y-110740000D01*
X113980000Y-112640000D02*
X113980000Y-110740000D01*
%TO.C,SW1*%
X105080000Y-116080000D02*
X105480000Y-116080000D01*
X105080000Y-120820000D02*
X105080000Y-116080000D01*
X105080000Y-120820000D02*
X105480000Y-120820000D01*
X108480000Y-116080000D02*
X106420000Y-116080000D01*
X108480000Y-120820000D02*
X106420000Y-120820000D01*
X109820000Y-116080000D02*
X109420000Y-116080000D01*
X109820000Y-120820000D02*
X109420000Y-120820000D01*
X109820000Y-120820000D02*
X109820000Y-116080000D01*
%TO.C,Q1*%
X113400000Y-97850000D02*
X120800000Y-97850000D01*
X113400000Y-106850000D02*
X113400000Y-97850000D01*
X120800000Y-97850000D02*
X120800000Y-106850000D01*
X120800000Y-106850000D02*
X113400000Y-106850000D01*
%TO.C,R2*%
X111600000Y-97850000D02*
X111600000Y-99750000D01*
X111600000Y-99750000D02*
X112600000Y-99750000D01*
X112600000Y-97850000D02*
X111600000Y-97850000D01*
X112600000Y-99750000D02*
X112600000Y-97850000D01*
%TO.C,SW3*%
X117080000Y-116080000D02*
X117480000Y-116080000D01*
X117080000Y-120820000D02*
X117080000Y-116080000D01*
X117080000Y-120820000D02*
X117480000Y-120820000D01*
X120480000Y-116080000D02*
X118420000Y-116080000D01*
X120480000Y-120820000D02*
X118420000Y-120820000D01*
X121820000Y-116080000D02*
X121420000Y-116080000D01*
X121820000Y-120820000D02*
X121420000Y-120820000D01*
X121820000Y-120820000D02*
X121820000Y-116080000D01*
%TO.C,D1*%
X104065000Y-98887500D02*
X104065000Y-102947500D01*
X104065000Y-102947500D02*
X106335000Y-102947500D01*
X106335000Y-102947500D02*
X106335000Y-98887500D01*
%TO.C,R9*%
X107250000Y-104310000D02*
X107250000Y-106210000D01*
X107250000Y-106210000D02*
X108250000Y-106210000D01*
X108250000Y-104310000D02*
X107250000Y-104310000D01*
X108250000Y-106210000D02*
X108250000Y-104310000D01*
%TO.C,R6*%
X115180000Y-110740000D02*
X115180000Y-112640000D01*
X115180000Y-112640000D02*
X116180000Y-112640000D01*
X116180000Y-110740000D02*
X115180000Y-110740000D01*
X116180000Y-112640000D02*
X116180000Y-110740000D01*
%TO.C,SW4*%
X123080000Y-116080000D02*
X123480000Y-116080000D01*
X123080000Y-120820000D02*
X123080000Y-116080000D01*
X123080000Y-120820000D02*
X123480000Y-120820000D01*
X126480000Y-116080000D02*
X124420000Y-116080000D01*
X126480000Y-120820000D02*
X124420000Y-120820000D01*
X127820000Y-116080000D02*
X127420000Y-116080000D01*
X127820000Y-120820000D02*
X127420000Y-120820000D01*
X127820000Y-120820000D02*
X127820000Y-116080000D01*
%TD*%
M02*
